<svg id="Calque_1" data-name="Calque 1" xmlns="http://www.w3.org/2000/svg" viewBox="0 0 102.57 102.85"><defs><style>.cls-1{fill:#fff;stroke:#fff;stroke-miterlimit:10;}</style></defs><title>logo-mobile</title><path class="cls-1" d="M47.08,102s-4-8.35,2.72-18.43C60.2,68,52.23,55.37,52.23,55.37s5.17,13.06-5.11,28.44c-6,9-3.42,16.08-3.42,16.08l.75,1.73"/><path class="cls-1" d="M23.27,59.47C15.26,61.94,10.59,70,10.59,70,9,41.61,29,38.85,29,38.85,23.74,37.87,15.36,40,15.36,40c14.08-14.43,38.41-6,38.41-6A54.07,54.07,0,0,0,47.7,29.7c14.85,1.39,19.69,10.68,19.69,10.68l9.51,6.56,1.47,3.77,9.35,6.06-5.09,9.68L67.72,66l-4,6,7.15,5.32,5.34-.66-4.33,7.82-5.57,2.51,1.37-3.61L54,78.17l15.24,3.69-.73,2.7,2.45-1.23,3.36-5.49-3.52.66-9.43-6.15,5.82-7.62L82,64.89l3.85-7.62-9.18-5.74L76,47.76l-9.18-6s-2.71-6.07-12.18-9.31a37,37,0,0,1,3.65,4.88s-19.67-8.52-37-.41c0,0,8.2-.57,12.87,1.89,0,0-20.82,1.88-21.72,25.4a18.93,18.93,0,0,1,14.18-6.55"/><path class="cls-1" d="M48.55,50.15s-3.86-3.21-4.85-6.29c0,0,3.88-3.58,12.21-1.09,0,0-7.27-.78-10.73,1.46,0,0,2,3.48,3.37,5.92"/><polygon class="cls-1" points="74.44 51.31 74.06 50.44 68.45 47.26 71.25 49.83 70.23 49.65 71.71 51.53 74.44 51.31"/><path class="cls-1" d="M55.26,44.23s-5.15.37-6.62,1.1a8.32,8.32,0,0,0,2.82,2s.7-2,3.8-3.09"/><path class="cls-1" d="M84.6,60.55l-2.68-2.74.77-.11L81,56.34s4.42.85,5.13,1.47Z"/><path class="cls-1" d="M82.14,66.37l-4.09,3.72a30.16,30.16,0,0,0,2-4.24s1.86,0,2.08.52"/><path class="cls-1" d="M73.24,77.5s.59-.83,2.22-2.94a19.12,19.12,0,0,1-5.82,2.38s.61,1.76,3.6.56"/><path class="cls-1" d="M47,102.29,44.4,102c-.85-.15-1.93-.18-3.15-.49l-4.24-1c-1.53-.54-3.25-1.08-5.08-1.79l-2.78-1.27c-.48-.23-1-.44-1.47-.69l-1.44-.84a48.27,48.27,0,0,1-11.95-9.39A50.77,50.77,0,0,1,4.44,71.41,50.21,50.21,0,0,1,.5,51.65c0-.88.06-1.76.08-2.65l.05-1.33c.05-.53.11-.9.17-1.35.11-.88.23-1.75.34-2.63l.19-1.32L1.64,41a42.54,42.54,0,0,1,1.45-5.31L4,33.11c.29-.88.75-1.69,1.12-2.54A51.1,51.1,0,0,1,38.4,2.29,51.1,51.1,0,0,1,60.13,1.18,49.94,49.94,0,0,1,79.18,8.61,51.63,51.63,0,0,1,92.42,21.16,47.74,47.74,0,0,1,99.48,34.8c.19.54.38,1.07.56,1.6s.27,1.06.4,1.58c.25,1,.5,2,.73,3,.34,1.94.52,3.75.75,5.36,0,1.64.1,3.09.14,4.36a31.11,31.11,0,0,1-.16,3.21c-.14,1.73-.21,2.66-.21,2.66l-.28,0V53.89c0-.86.07-1.92-.06-3.17s-.25-2.67-.41-4.26c-.32-1.58-.62-3.33-1-5.2-.27-.92-.55-1.88-.85-2.88-.15-.49-.28-1-.45-1.51s-.41-1-.61-1.52A48.79,48.79,0,0,0,90.65,22.5,49.78,49.78,0,0,0,20,14.43a50,50,0,0,0-13.14,17C6.49,32.19,6,33,5.74,33.81l-.91,2.5a41.77,41.77,0,0,0-1.45,5l-.32,1.26-.2,1.32-.39,2.62L2.3,47.81,2.24,49.1l-.12,2.57A49.34,49.34,0,0,0,5.66,70.91,49.91,49.91,0,0,0,15,85.83a47.68,47.68,0,0,0,11.58,9.45l1.41.86c.48.25,1,.47,1.44.7l2.72,1.32c1.8.73,3.49,1.29,5,1.86l4.16,1.06c1.21.32,2.29.38,3.14.54l2.63.39Z"/></svg>