<svg id="Calque_1" data-name="Calque 1" xmlns="http://www.w3.org/2000/svg" viewBox="0 0 239.24 57.46"><defs><style>.cls-1{fill:#2d2d2d;}</style></defs><title>sub-logo-mobile</title><path class="cls-1" d="M29,19.07V36.15H17.48V22.07c0-2.25-.55-2.9-1.75-2.9-1.64,0-2.39,1.2-2.39,3.9V36.15H1.85v-25H12.19l.25,5.45a8.67,8.67,0,0,1,8.69-5.94c4.94,0,7.84,3,7.84,8.38"/><path class="cls-1" d="M59.88,11.18v25H49.54l-.25-5.29a8.36,8.36,0,0,1-8.44,5.79c-5.19,0-8.09-2.5-8.09-8.59V11.18H44.25v14c0,2.24.55,2.94,1.85,2.94,1.54,0,2.29-1.25,2.29-3.94v-13Z"/><path class="cls-1" d="M83.85,35a16.37,16.37,0,0,1-7.44,1.7c-7,0-10.69-2.4-10.69-8.89V18.92H61.88V11.18h3.84V5.89L77.21,2.7v8.48H83.5v7.74H77.21v7c0,2.29.94,3.14,3,3.14a6.54,6.54,0,0,0,3.15-.65Z"/><path class="cls-1" d="M106.52,11.28l-1,9.39a5.68,5.68,0,0,0-3.15-.8c-3,0-4.94,1.45-4.94,4.3v12H86v-25H96.33l.25,6.25c1.1-4.1,3.4-6.74,7.34-6.74a4.44,4.44,0,0,1,2.6.59"/><path class="cls-1" d="M107.67,4.79c0-3.49,1.69-4.79,6.24-4.79s6.24,1.3,6.24,4.79-1.7,4.8-6.24,4.8-6.24-1.3-6.24-4.8m12,31.36H108.17v-25h11.48Z"/><path class="cls-1" d="M135,26.21c0,2,.5,2.9,2.05,2.9a6.13,6.13,0,0,0,1.79-.25l-.49,6.19a11.82,11.82,0,0,1-6.2,1.6c-6.19,0-8.63-2.45-8.63-8.69V1.2H135Z"/><path class="cls-1" d="M140.07,4.79c0-3.49,1.7-4.79,6.25-4.79s6.24,1.3,6.24,4.79-1.7,4.8-6.24,4.8-6.25-1.3-6.25-4.8"/><rect class="cls-1" x="140.57" y="11.18" width="11.48" height="24.97"/><path class="cls-1" d="M182.87,23.67c0,8.24-5.1,13-13.93,13S155,31.91,155,23.67s5.1-13,13.94-13,13.93,4.74,13.93,13m-16.33,0c0,4.19.5,5.24,2.4,5.24s2.39-1.05,2.39-5.24-.5-5.24-2.39-5.24-2.4,1-2.4,5.24"/><path class="cls-1" d="M212.93,19.07V36.15H201.44V22.07c0-2.25-.55-2.9-1.74-2.9-1.65,0-2.4,1.2-2.4,3.9V36.15H185.81v-25h10.34l.25,5.45a8.67,8.67,0,0,1,8.69-5.94c4.94,0,7.84,3,7.84,8.38"/><polygon class="cls-1" points="215.93 29.56 223.72 20.97 226.06 18.68 222.42 18.77 215.93 18.77 215.93 11.19 238.75 11.19 238.75 17.78 231.1 26.27 228.66 28.66 232.75 28.56 239.24 28.56 239.24 36.15 215.93 36.15 215.93 29.56"/><polygon class="cls-1" points="0 45.51 0.99 45.51 4.32 53.84 7.64 45.51 8.62 45.51 4.78 54.86 3.81 54.86 0 45.51"/><path class="cls-1" d="M17.19,48.27a3.29,3.29,0,0,1,1.26,1.25,3.67,3.67,0,0,1,.45,1.82,3.72,3.72,0,0,1-.45,1.84,3.25,3.25,0,0,1-1.26,1.26,3.91,3.91,0,0,1-3.64,0,3.31,3.31,0,0,1-1.26-1.26,3.72,3.72,0,0,1-.45-1.84,3.67,3.67,0,0,1,.45-1.82,3.36,3.36,0,0,1,1.26-1.25,3.91,3.91,0,0,1,3.64,0M14,49a2.31,2.31,0,0,0-.94,1,3.31,3.31,0,0,0,0,2.88,2.4,2.4,0,0,0,.94,1,2.67,2.67,0,0,0,1.36.34,2.73,2.73,0,0,0,1.37-.34,2.44,2.44,0,0,0,.93-1,3.22,3.22,0,0,0,0-2.88,2.35,2.35,0,0,0-.93-1,2.74,2.74,0,0,0-1.37-.35A2.67,2.67,0,0,0,14,49"/><path class="cls-1" d="M27.5,54.38A2.88,2.88,0,0,1,26,54.9a1.67,1.67,0,0,1-1.27-.49,2.11,2.11,0,0,1-.47-1.49V48.75h-1v-.7h1V46.24h.9v1.81h2.27v.71H25.11v4c0,.87.32,1.3,1,1.3a2.31,2.31,0,0,0,1.17-.37Z"/><path class="cls-1" d="M34.19,48.26a2.88,2.88,0,0,1,1.55-.44v.85a2.35,2.35,0,0,0-1.78.65,2.72,2.72,0,0,0-.77,1.79v3.75h-.9v-7h.9v1.63a2.64,2.64,0,0,1,1-1.22"/><path class="cls-1" d="M45.58,48.86a4,4,0,0,1,.79,2.79H40.52a2.68,2.68,0,0,0,.83,1.81,2.56,2.56,0,0,0,1.82.69,3.19,3.19,0,0,0,1.24-.24,2.78,2.78,0,0,0,1-.68l.51.51a3.62,3.62,0,0,1-1.22.85,4,4,0,0,1-1.57.3,3.6,3.6,0,0,1-1.81-.45,3.24,3.24,0,0,1-1.24-1.25,3.95,3.95,0,0,1,0-3.66,3.2,3.2,0,0,1,1.24-1.26,3.54,3.54,0,0,1,1.78-.45,3,3,0,0,1,2.49,1m0,2.09a2.49,2.49,0,0,0-.73-1.74,2.36,2.36,0,0,0-1.73-.65,2.52,2.52,0,0,0-1.76.65A2.61,2.61,0,0,0,40.52,51Z"/><path class="cls-1" d="M63.76,48.27A3,3,0,0,1,65,49.53a3.82,3.82,0,0,1,.43,1.84A3.76,3.76,0,0,1,65,53.19a3.11,3.11,0,0,1-1.19,1.25,3.37,3.37,0,0,1-1.74.45,3.19,3.19,0,0,1-1.68-.44,2.93,2.93,0,0,1-1.13-1.21v4.22h-.89V47.85h.89v1.62a2.85,2.85,0,0,1,1.12-1.21A3.19,3.19,0,0,1,62,47.82a3.37,3.37,0,0,1,1.74.45m-.55,5.49a2.46,2.46,0,0,0,.93-1,3.16,3.16,0,0,0,0-2.85,2.44,2.44,0,0,0-.93-1,2.8,2.8,0,0,0-2.71,0,2.53,2.53,0,0,0-.94,1,3,3,0,0,0-.34,1.42,2.91,2.91,0,0,0,.34,1.43,2.46,2.46,0,0,0,.93,1,2.71,2.71,0,0,0,1.37.35,2.66,2.66,0,0,0,1.35-.35"/><path class="cls-1" d="M74.86,54.86V53.68a2.56,2.56,0,0,1-1.09.92,3.71,3.71,0,0,1-1.54.3A2.77,2.77,0,0,1,71,54.63a2,2,0,0,1-.83-.76,2,2,0,0,1-.3-1.08,1.67,1.67,0,0,1,.71-1.43,3.14,3.14,0,0,1,1.93-.53h2.35V50.3A1.68,1.68,0,0,0,74.34,49a2.08,2.08,0,0,0-1.45-.45,3.8,3.8,0,0,0-2.26.84l-.4-.61a5.64,5.64,0,0,1,1.35-.73,4.2,4.2,0,0,1,1.47-.24,2.83,2.83,0,0,1,2,.64,2.32,2.32,0,0,1,.71,1.76v4.64ZM74,53.72a2.19,2.19,0,0,0,.88-1.23v-1H72.59a2.59,2.59,0,0,0-1.41.31,1,1,0,0,0-.48.92,1.23,1.23,0,0,0,.46,1,1.89,1.89,0,0,0,1.22.38A2.78,2.78,0,0,0,74,53.72"/><path class="cls-1" d="M83.2,48.26a2.89,2.89,0,0,1,1.56-.44v.85a2.37,2.37,0,0,0-1.79.65,2.77,2.77,0,0,0-.77,1.79v3.75h-.89v-7h.89v1.63a2.77,2.77,0,0,1,1-1.22"/><path class="cls-1" d="M92.91,54.38a2.91,2.91,0,0,1-1.56.52,1.68,1.68,0,0,1-1.27-.49,2.11,2.11,0,0,1-.47-1.49V48.75h-1v-.7h1V46.24h.9v1.81h2.28v.71H90.51v4c0,.87.32,1.3,1,1.3a2.31,2.31,0,0,0,1.17-.37Z"/><path class="cls-1" d="M102.81,48.86a4,4,0,0,1,.78,2.79H97.75a2.68,2.68,0,0,0,.83,1.81,2.55,2.55,0,0,0,1.82.69,3.19,3.19,0,0,0,1.24-.24,3,3,0,0,0,1-.68l.51.51a3.62,3.62,0,0,1-1.22.85,4.08,4.08,0,0,1-1.58.3,3.56,3.56,0,0,1-1.8-.45,3.24,3.24,0,0,1-1.24-1.25,3.95,3.95,0,0,1,0-3.66,3.2,3.2,0,0,1,1.24-1.26,3.51,3.51,0,0,1,1.78-.45,3.06,3.06,0,0,1,2.49,1m0,2.09a2.53,2.53,0,0,0-.73-1.74,2.38,2.38,0,0,0-1.73-.65,2.56,2.56,0,0,0-1.77.65A2.64,2.64,0,0,0,97.75,51Z"/><path class="cls-1" d="M114.28,48.55a2.78,2.78,0,0,1,.71,2v4.31h-.91V50.77a2.14,2.14,0,0,0-.55-1.56,2,2,0,0,0-1.52-.56,2.36,2.36,0,0,0-1.73.67,2.77,2.77,0,0,0-.75,1.77v3.77h-.89v-7h.89v1.63a2.64,2.64,0,0,1,1.07-1.23,3.45,3.45,0,0,1,1.7-.43,2.68,2.68,0,0,1,2,.73"/><path class="cls-1" d="M125,54.86l0-1.18a2.48,2.48,0,0,1-1.08.92,3.74,3.74,0,0,1-1.54.3,2.77,2.77,0,0,1-1.25-.27,2,2,0,0,1-.83-.76,2,2,0,0,1-.3-1.08,1.69,1.69,0,0,1,.7-1.43,3.19,3.19,0,0,1,1.94-.53h2.35V50.3a1.68,1.68,0,0,0-.49-1.29,2.1,2.1,0,0,0-1.45-.45,3.8,3.8,0,0,0-2.26.84l-.4-.61a5.64,5.64,0,0,1,1.35-.73,4.2,4.2,0,0,1,1.47-.24,2.85,2.85,0,0,1,2,.64,2.32,2.32,0,0,1,.71,1.76v4.64Zm-.89-1.14a2.13,2.13,0,0,0,.87-1.23v-1h-2.26a2.57,2.57,0,0,0-1.4.31,1,1,0,0,0-.48.92,1.23,1.23,0,0,0,.46,1,1.87,1.87,0,0,0,1.22.38,2.78,2.78,0,0,0,1.59-.43"/><path class="cls-1" d="M132.3,45.38a.61.61,0,0,1,.18.45.65.65,0,0,1-.18.46.62.62,0,0,1-.44.18.61.61,0,0,1-.45-.18.65.65,0,0,1-.18-.46.62.62,0,0,1,.63-.63.57.57,0,0,1,.44.18m-.89,2.47h.89v7h-.89Z"/><path class="cls-1" d="M140,48.26a2.94,2.94,0,0,1,1.56-.44v.85a2.35,2.35,0,0,0-1.78.65,2.72,2.72,0,0,0-.77,1.79v3.75h-.9v-7h.9v1.63a2.69,2.69,0,0,1,1-1.22"/><path class="cls-1" d="M151.36,48.86a3.92,3.92,0,0,1,.79,2.79h-5.84a2.68,2.68,0,0,0,.83,1.81,2.55,2.55,0,0,0,1.82.69,3.19,3.19,0,0,0,1.24-.24,3,3,0,0,0,1-.68l.51.51a3.62,3.62,0,0,1-1.22.85,4.08,4.08,0,0,1-1.58.3,3.56,3.56,0,0,1-1.8-.45,3.24,3.24,0,0,1-1.24-1.25,3.95,3.95,0,0,1,0-3.66,3.2,3.2,0,0,1,1.24-1.26,3.51,3.51,0,0,1,1.78-.45,3,3,0,0,1,2.48,1m0,2.09a2.53,2.53,0,0,0-.73-1.74,2.38,2.38,0,0,0-1.73-.65,2.56,2.56,0,0,0-1.77.65,2.64,2.64,0,0,0-.81,1.74Z"/><path class="cls-1" d="M170.43,44.93v9.93h-.9V53.25a3,3,0,0,1-1.12,1.23,3.22,3.22,0,0,1-1.69.43,3.41,3.41,0,0,1-1.76-.45,3.15,3.15,0,0,1-1.21-1.27,4,4,0,0,1-.43-1.85,3.78,3.78,0,0,1,.44-1.83,3.17,3.17,0,0,1,1.2-1.26,3.43,3.43,0,0,1,1.75-.45,3.16,3.16,0,0,1,1.69.44,2.93,2.93,0,0,1,1.13,1.23V44.93Zm-2.18,8.85a2.47,2.47,0,0,0,.94-1,3.2,3.2,0,0,0,0-2.87,2.59,2.59,0,0,0-.94-1,2.62,2.62,0,0,0-1.37-.36,2.58,2.58,0,0,0-1.36.36,2.61,2.61,0,0,0-1,1,3.16,3.16,0,0,0,0,2.87,2.49,2.49,0,0,0,.95,1,2.79,2.79,0,0,0,2.74,0"/><path class="cls-1" d="M181.5,48.86a4,4,0,0,1,.79,2.79h-5.84a2.68,2.68,0,0,0,.83,1.81,2.55,2.55,0,0,0,1.82.69,3.19,3.19,0,0,0,1.24-.24,3,3,0,0,0,1-.68l.51.51a3.57,3.57,0,0,1-1.23.85,4,4,0,0,1-1.57.3,3.54,3.54,0,0,1-1.8-.45A3.24,3.24,0,0,1,176,53.19a3.95,3.95,0,0,1,0-3.66,3.2,3.2,0,0,1,1.24-1.26,3.51,3.51,0,0,1,1.78-.45,3,3,0,0,1,2.48,1m0,2.09a2.53,2.53,0,0,0-.73-1.74,2.38,2.38,0,0,0-1.73-.65,2.54,2.54,0,0,0-1.77.65,2.64,2.64,0,0,0-.81,1.74Z"/><path class="cls-1" d="M196.91,48.7a3.67,3.67,0,0,0-1-.14,2,2,0,0,0-1.08.26.86.86,0,0,0-.41.78.84.84,0,0,0,.22.59,1.66,1.66,0,0,0,.55.37,8.75,8.75,0,0,0,.92.31c.48.15.87.29,1.18.42a2.07,2.07,0,0,1,.77.61,1.55,1.55,0,0,1,.32,1,1.67,1.67,0,0,1-.72,1.46,3.12,3.12,0,0,1-1.81.5,4.38,4.38,0,0,1-1.47-.26,3.3,3.3,0,0,1-1.19-.72l.36-.64a3.66,3.66,0,0,0,1.08.65,3.52,3.52,0,0,0,1.26.24,2,2,0,0,0,1.16-.29,1,1,0,0,0,.45-.86.9.9,0,0,0-.23-.63,1.45,1.45,0,0,0-.57-.39c-.22-.09-.54-.2-.94-.33a9.64,9.64,0,0,1-1.15-.41,2.23,2.23,0,0,1-.75-.58,1.59,1.59,0,0,1-.31-1,1.56,1.56,0,0,1,.69-1.39,3,3,0,0,1,1.72-.47,4.18,4.18,0,0,1,1.17.16,3.94,3.94,0,0,1,1,.44l-.35.68a3.31,3.31,0,0,0-.9-.39"/><path class="cls-1" d="M208.87,48.27a3.08,3.08,0,0,1,1.19,1.26,3.82,3.82,0,0,1,.43,1.84,3.76,3.76,0,0,1-.43,1.82,3.11,3.11,0,0,1-1.19,1.25,3.32,3.32,0,0,1-1.74.45,3.19,3.19,0,0,1-1.68-.44,2.91,2.91,0,0,1-1.12-1.21v4.22h-.9V47.85h.9v1.62a2.83,2.83,0,0,1,1.11-1.21,3.24,3.24,0,0,1,1.68-.44,3.43,3.43,0,0,1,1.75.45m-.56,5.49a2.49,2.49,0,0,0,.94-1,3.24,3.24,0,0,0,0-2.85,2.46,2.46,0,0,0-.94-1,2.8,2.8,0,0,0-2.71,0,2.51,2.51,0,0,0-.93,1,2.92,2.92,0,0,0-.34,1.42,3,3,0,0,0,.33,1.43,2.49,2.49,0,0,0,.94,1,2.8,2.8,0,0,0,2.71,0"/><path class="cls-1" d="M220.19,48.27a3.22,3.22,0,0,1,1.26,1.25,3.67,3.67,0,0,1,.45,1.82,3.72,3.72,0,0,1-.45,1.84,3.18,3.18,0,0,1-1.26,1.26,3.91,3.91,0,0,1-3.64,0,3.22,3.22,0,0,1-1.25-1.26,3.62,3.62,0,0,1-.46-1.84,3.57,3.57,0,0,1,.46-1.82,3.26,3.26,0,0,1,1.25-1.25,3.91,3.91,0,0,1,3.64,0M217,49a2.37,2.37,0,0,0-.94,1,3.31,3.31,0,0,0,0,2.88,2.46,2.46,0,0,0,.94,1,2.67,2.67,0,0,0,1.36.34,2.73,2.73,0,0,0,1.37-.34,2.44,2.44,0,0,0,.93-1,3.22,3.22,0,0,0,0-2.88,2.35,2.35,0,0,0-.93-1,2.74,2.74,0,0,0-1.37-.35A2.67,2.67,0,0,0,217,49"/><path class="cls-1" d="M228.87,48.26a2.89,2.89,0,0,1,1.56-.44v.85a2.36,2.36,0,0,0-1.79.65,2.72,2.72,0,0,0-.77,1.79v3.75H227v-7h.9v1.63a2.64,2.64,0,0,1,1-1.22"/><path class="cls-1" d="M238.57,54.38a2.88,2.88,0,0,1-1.55.52,1.65,1.65,0,0,1-1.27-.49,2.11,2.11,0,0,1-.47-1.49V48.75h-1l0-.7h1V46.24h.9v1.81h2.27v.71h-2.27v4c0,.87.32,1.3,1,1.3a2.27,2.27,0,0,0,1.16-.37Z"/></svg>