<svg id="Calque_1" data-name="Calque 1" xmlns="http://www.w3.org/2000/svg" viewBox="0 0 32.07 27.79"><defs><style>.cls-1{fill:#0c0909;fill-rule:evenodd;}</style></defs><title>home</title><path class="cls-1" d="M3.81,45a.71.71,0,0,1-.72-.7V28.19L1.16,29.57a.71.71,0,0,1-.44.15.76.76,0,0,1-.57-.27.68.68,0,0,1,.13-1l15.41-11.1a.74.74,0,0,1,.89,0l15.21,11.1a.68.68,0,0,1,.13,1,.75.75,0,0,1-1,.12l-1.8-1.31V44.31a.71.71,0,0,1-.72.7M12,44.81c-.13-.14-.44-.31-.44-.5m16.09-.69V27.51a.75.75,0,0,1,.05-.26L16.13,18.8,4.51,27.16a.3.3,0,0,1,0,.1V43.62m8,0" transform="translate(0 -17.22)"/></svg>