<svg id="Calque_1" data-name="Calque 1" xmlns="http://www.w3.org/2000/svg" viewBox="0 0 19.62 12.06"><defs><style>.cls-1{fill:#231f20;}</style></defs><title>plat</title><path class="cls-1" d="M380.48,11.91a.42.42,0,0,0,.3.15h16.15a.29.29,0,0,0,.3-.18L398.59,10a.33.33,0,0,0,0-.38.39.39,0,0,0-.34-.18h-.76a8.68,8.68,0,0,0-8.3-8.29V.75H390a.36.36,0,0,0,.38-.37A.36.36,0,0,0,390,0h-2.27a.35.35,0,0,0-.37.38.35.35,0,0,0,.37.37h.76v.39a8.68,8.68,0,0,0-8.3,8.29h-.76a.39.39,0,0,0-.34.22.43.43,0,0,0,0,.38Zm8.38-10a7.92,7.92,0,0,1,7.92,7.54H380.93A8,8,0,0,1,388.86,1.89Zm-8.31,8.29h17l-.8,1.13H381l-.8-1.13Z" transform="translate(-379.05)"/></svg>