<svg id="Calque_1" data-name="Calque 1" xmlns="http://www.w3.org/2000/svg" viewBox="0 0 49.32 42.14"><defs><style>.cls-1{fill:#231f20;stroke:#fff;stroke-miterlimit:10;}</style></defs><title>quote</title><path class="cls-1" d="M140.63,36.06,147,41.5a34.74,34.74,0,0,0,14-27.21C161,5.4,156,.5,150.29.5A9.53,9.53,0,0,0,141,10.31c0,5.25,3.62,9.24,8.46,9.24a15.34,15.34,0,0,0,2.25-.36C151,25,146.15,32.24,140.63,36.06Z" transform="translate(-112.18)"/><path class="cls-1" d="M121.8,19.55c.69,0,1.91-.36,2.25-.36-.69,5.8-5.53,13.05-11,16.87l6.39,5.44a34.74,34.74,0,0,0,14-27.21c0-8.89-5-13.79-10.71-13.79a9.53,9.53,0,0,0-9.31,9.81C113.35,15.56,117,19.55,121.8,19.55Z" transform="translate(-112.18)"/></svg>